<svg xmlns="http://www.w3.org/2000/svg" viewBox="0 0 960 170" role="img" aria-labelledby="title desc">
  <title id="title">How It Works workflow illustration</title>
  <desc id="desc">Four connected health-management steps: monitoring, AI analysis, guidance, and cloud platform.</desc>
  <defs>
    <linearGradient id="bg" x1="0" y1="0" x2="1" y2="1">
      <stop offset="0" stop-color="#f6fffc"/>
      <stop offset="1" stop-color="#edf7ff"/>
    </linearGradient>
    <filter id="shadow" x="-20%" y="-20%" width="140%" height="140%">
      <feDropShadow dx="0" dy="12" stdDeviation="12" flood-color="#12263f" flood-opacity="0.12"/>
    </filter>
  </defs>
  <rect width="960" height="170" rx="30" fill="url(#bg)"/>
  <g stroke="#b8d6ee" stroke-width="2" opacity=".8">
    <path d="M105 80 C190 20 260 145 348 82 S520 52 606 88 762 146 853 72" fill="none"/>
    <circle cx="160" cy="45" r="5" fill="#fff"/><circle cx="346" cy="82" r="5" fill="#fff"/><circle cx="604" cy="88" r="5" fill="#fff"/><circle cx="802" cy="104" r="5" fill="#fff"/>
  </g>
  <g filter="url(#shadow)">
    <g transform="translate(75 35)">
      <rect width="135" height="100" rx="22" fill="#fff" stroke="#d8e5f1"/>
      <circle cx="28" cy="26" r="14" fill="#10a386"/><text x="28" y="31" text-anchor="middle" font-family="Arial" font-size="14" font-weight="700" fill="#fff">1</text>
      <rect x="53" y="30" width="34" height="48" rx="8" fill="#17335c"/><circle cx="70" cy="55" r="10" fill="#fff" opacity=".92"/><path d="M66 55h8M70 51v8" stroke="#10a386" stroke-width="2"/>
      <rect x="93" y="25" width="24" height="58" rx="5" fill="#eef7ff" stroke="#3b82f6"/><path d="M99 39h12M99 51h12M99 63h12" stroke="#10a386" stroke-width="2"/>
    </g>
    <g transform="translate(305 35)">
      <rect width="135" height="100" rx="22" fill="#fff" stroke="#d8e5f1"/>
      <circle cx="28" cy="26" r="14" fill="#10a386"/><text x="28" y="31" text-anchor="middle" font-family="Arial" font-size="14" font-weight="700" fill="#fff">2</text>
      <path d="M68 75c-20-7-27-25-18-41 8-15 28-16 38-3 14-8 31 3 31 19 0 20-25 32-51 25z" fill="#ecfffb" stroke="#10a386" stroke-width="3"/>
      <path d="M93 39l22-18M96 55h28M90 67l18 20" stroke="#2f7cf6" stroke-width="3" stroke-linecap="round"/>
      <circle cx="117" cy="19" r="4" fill="#2f7cf6"/><circle cx="127" cy="55" r="4" fill="#2f7cf6"/><circle cx="110" cy="90" r="4" fill="#2f7cf6"/>
    </g>
    <g transform="translate(535 35)">
      <rect width="135" height="100" rx="22" fill="#fff" stroke="#d8e5f1"/>
      <circle cx="28" cy="26" r="14" fill="#10a386"/><text x="28" y="31" text-anchor="middle" font-family="Arial" font-size="14" font-weight="700" fill="#fff">3</text>
      <rect x="58" y="22" width="43" height="68" rx="6" fill="#fff" stroke="#17335c" stroke-width="2"/><path d="M68 42h22M68 57h22M68 72h22" stroke="#10a386" stroke-width="3" stroke-linecap="round"/>
      <text x="112" y="47" font-size="18">🍎</text><text x="112" y="69" font-size="18">🏃</text><text x="112" y="91" font-size="18">🌙</text>
    </g>
    <g transform="translate(765 35)">
      <rect width="135" height="100" rx="22" fill="#fff" stroke="#d8e5f1"/>
      <circle cx="28" cy="26" r="14" fill="#10a386"/><text x="28" y="31" text-anchor="middle" font-family="Arial" font-size="14" font-weight="700" fill="#fff">4</text>
      <path d="M60 76h55c13 0 23-10 23-22s-9-21-21-22c-5-15-19-25-36-25-20 0-36 15-38 34-12 2-21 11-21 23 0 7 5 12 38 12z" transform="translate(-2 16) scale(.75)" fill="#dff1ff" stroke="#17335c" stroke-width="3"/>
      <rect x="66" y="58" width="38" height="30" rx="5" fill="#17335c"/><path d="M75 58v-8c0-7 5-12 11-12s11 5 11 12v8" fill="none" stroke="#17335c" stroke-width="6"/><circle cx="85" cy="72" r="4" fill="#fff"/>
    </g>
  </g>
  <g fill="#17335c" font-family="Arial" font-size="32" opacity=".9">
    <text x="242" y="94">→</text><text x="472" y="94">→</text><text x="702" y="94">→</text>
  </g>
</svg>
